<svg xmlns="http://www.w3.org/2000/svg" xmlns:xlink="http://www.w3.org/1999/xlink" width="540.67" height="294.738" viewBox="0 0 540.67 294.738">
  <defs>
    <linearGradient id="linear-gradient" y1="0.119" x2="0.785" y2="1.184" gradientUnits="objectBoundingBox">
      <stop offset="0" stop-color="#85bd49"/>
      <stop offset="1" stop-color="#208580"/>
    </linearGradient>
  </defs>
  <g id="Group_3" data-name="Group 3" transform="translate(-1563.979 -254.081)">
    <path id="Path_34" data-name="Path 34" d="M1655.463,423.37c-.932.664-1.662,1.175-2.384,1.7q-12.033,8.707-24.065,17.416c-1.094.791-1.1.788-1.767-.379-.975-1.7-1.905-3.422-2.94-5.082-.537-.861-.334-1.213.54-1.6q14.426-6.347,28.827-12.75c.3-.132.589-.275.986-.461-.279-.2-.485-.376-.716-.509q-22.75-13.124-45.509-26.232a1.881,1.881,0,0,1-1.035-1.844q.029-27.321,0-54.642a1.864,1.864,0,0,1,1.075-1.813q23.142-13.315,46.273-26.649c.74-.425.717-.976.717-1.634q-.006-26.068,0-52.136c0-.363-.011-.726.006-1.088.045-1,.591-1.654,1.4-1.58a1.356,1.356,0,0,1,1.331,1.541c0,.363,0,.726,0,1.088q0,26.069-.021,52.138a1.852,1.852,0,0,0,1.087,1.863q23.009,13.218,45.987,26.489a1.827,1.827,0,0,1,1.021,1.752q-.031,26.667-.045,53.335a1.44,1.44,0,0,0,.816,1.456q46.542,26.836,93.056,53.72a1.368,1.368,0,0,0,1.578-.04q22.452-12.987,44.932-25.926a1.612,1.612,0,0,0,.885-1.65q-.031-14.64-.012-29.28a8.159,8.159,0,0,1,.037-1.195,1.361,1.361,0,0,1,2.715.068c.028.324.012.653.012.979q0,14.749-.014,29.5a1.518,1.518,0,0,0,.849,1.546q23.1,13.278,46.177,26.6a1.9,1.9,0,0,1,1.064,1.836q-.039,26.722-.058,53.444c0,.8.452,1.047.993,1.359,14.2,8.172,28.441,16.283,42.563,24.591,2.359,1.388,3.968,1.427,6.352.021,14.581-8.6,29.286-16.993,43.942-25.467a1.712,1.712,0,0,1,1.917.015q23.115,13.362,46.239,26.708a1.434,1.434,0,0,0,1.671.02q23.107-13.374,46.235-26.714a1.716,1.716,0,0,1,1.918-.045q23.539,13.6,47.09,27.189c.22.127.442.251.653.391a1.323,1.323,0,0,1,.525,1.955,1.289,1.289,0,0,1-1.894.432c-.828-.449-1.641-.928-2.457-1.4q-21.9-12.635-43.794-25.287a1.755,1.755,0,0,0-2.041-.029q-23.054,13.359-46.161,26.626a2.135,2.135,0,0,1-1.8,0q-23.061-13.236-46.062-26.577a1.817,1.817,0,0,0-2.135-.023q-23,13.338-46.066,26.569a2.247,2.247,0,0,1-1.888,0q-23.167-13.272-46.277-26.642a1.417,1.417,0,0,0-1.659-.1q-23.1,13.393-46.223,26.735a1.893,1.893,0,0,1-2.118-.028q-23.108-13.373-46.223-26.734a1.338,1.338,0,0,0-1.564.1q-13.129,7.6-26.27,15.184c-1.438.83-2.267.806-2.731-.075-.44-.837-.047-1.513,1.335-2.312q13.135-7.592,26.279-15.169a1.512,1.512,0,0,0,.87-1.53q-.03-25.906,0-51.812a1.522,1.522,0,0,0-.867-1.533q-46.166-26.619-92.295-53.3a2.5,2.5,0,0,0-2.919-.024q-22.1,12.834-44.262,25.565a1.684,1.684,0,0,0-.968,1.706q.037,25.743,0,51.485a1.777,1.777,0,0,0,1.023,1.789q22.574,12.993,45.118,26.041c.157.091.316.178.472.269,1.367.8,1.735,1.506,1.217,2.344s-1.229.852-2.562.082l-27.779-16.051c-5.9-3.41-11.814-6.8-17.692-10.248a1.928,1.928,0,0,0-2.256-.01q-22.626,13.12-45.289,26.178c-.345.2-.688.407-1.049.572a1.363,1.363,0,0,1-1.4-2.321,4.743,4.743,0,0,1,.736-.46q22.792-13.161,45.6-26.3a2.026,2.026,0,0,0,1.164-2.043q-.047-25.089-.022-50.179Zm47.99-56.987c0-8.633-.011-17.267.019-25.9a1.584,1.584,0,0,0-.915-1.612q-22.335-12.854-44.627-25.78a1.855,1.855,0,0,0-2.155-.01q-22.251,12.888-44.543,25.7a1.766,1.766,0,0,0-1.038,1.771q.043,25.736,0,51.473a1.835,1.835,0,0,0,1.067,1.859q22.436,12.894,44.825,25.87a1.42,1.42,0,0,0,1.661-.1q22.453-12.975,44.923-25.919a1.43,1.43,0,0,0,.8-1.461Q1703.436,379.333,1703.454,366.383Zm192.059,110.886q0-13,.016-26.008a1.411,1.411,0,0,0-.814-1.46c-1.627-.876-3.213-1.827-4.814-2.752l-40.11-23.162c-.495-.286-.9-.548-1.564-.163q-22.576,13.084-45.195,26.1a1.367,1.367,0,0,0-.783,1.368q.027,26.008,0,52.016a1.447,1.447,0,0,0,.856,1.442q22.475,12.934,44.919,25.921a1.526,1.526,0,0,0,1.769-.017q22.393-12.968,44.819-25.88a1.59,1.59,0,0,0,.923-1.61C1895.5,494.463,1895.512,485.866,1895.512,477.269Z" transform="translate(-33.961 0)" fill="url(#linear-gradient)"/>
    <path id="Path_35" data-name="Path 35" d="M2678.668,727.361a39.917,39.917,0,0,1-.914,4.806c-1.76,5.756-6.543,9.029-12.8,8.914a12.314,12.314,0,0,1-12.113-9.549c-1.325-5.248-.926-10.384,2.771-14.671,3.656-4.24,8.473-5.087,13.682-3.7,5.233,1.394,7.9,5.208,8.942,10.309C2678.471,724.6,2678.5,725.768,2678.668,727.361Zm-22.8-.487c.14,1.242.191,2.443.423,3.608a9.114,9.114,0,0,0,8.665,7.5,9,9,0,0,0,9.278-6.7,15.446,15.446,0,0,0-.1-9.1,8.844,8.844,0,0,0-9.128-6.417,8.672,8.672,0,0,0-8.571,7.073C2656.121,724.162,2656.047,725.547,2655.87,726.874Z" transform="translate(-851.107 -358.585)" fill="url(#linear-gradient)"/>
    <path id="Path_36" data-name="Path 36" d="M2241.928,1490.316a47.811,47.811,0,0,1-1.289,5.9c-1.927,5.515-6.757,8.493-13.036,8.26a12.333,12.333,0,0,1-11.619-9.479c-1.344-5.246-.96-10.378,2.707-14.685,3.632-4.266,8.451-5.137,13.662-3.775,5.282,1.381,7.974,5.221,9.015,10.37.221,1.094.251,2.227.369,3.343Zm-23.005-.547c.208,1.78.261,3.018.51,4.216a9.089,9.089,0,0,0,8.1,7.347,8.8,8.8,0,0,0,9.226-5.137,14.029,14.029,0,0,0-.244-12.3,8.319,8.319,0,0,0-8.279-4.731c-3.647.135-6.6,1.647-8.024,5.12A31.383,31.383,0,0,0,2218.923,1489.768Z" transform="translate(-509.404 -955.671)" fill="url(#linear-gradient)"/>
    <path id="Path_37" data-name="Path 37" d="M2243.565,726.414V715.24h3.608v27.436h-3.568V729.823h-14.344v12.852h-3.618V715.248h3.621v11.166Z" transform="translate(-517.516 -360.692)" fill="url(#linear-gradient)"/>
    <path id="Path_38" data-name="Path 38" d="M1563.979,1096.843h3.566v11.2h14.347v-11.175h3.612v27.443h-3.588v-12.892H1567.6v12.878h-3.626Z" transform="translate(0 -659.16)" fill="url(#linear-gradient)"/>
    <path id="Path_39" data-name="Path 39" d="M2094.346,1478.574h3.527v11.169h14.309V1478.6h3.62v27.411h-3.587v-12.873h-14.276v12.9h-3.593Z" transform="translate(-414.822 -957.727)" fill="url(#linear-gradient)"/>
    <path id="Path_40" data-name="Path 40" d="M2798.329,715.284h3.59v11.133h14.287V715.294h3.611v27.389h-3.535V729.846h-14.324V742.7h-3.629Z" transform="translate(-965.437 -360.726)" fill="url(#linear-gradient)"/>
    <path id="Path_41" data-name="Path 41" d="M1924.172,1273.067c0,1.355-.88,2-1.812,1.7a5.132,5.132,0,0,1-.961-.5q-20.343-11.73-40.669-23.491a2.455,2.455,0,0,1-1.142-1.517c-.144-1.135,1.123-1.644,2.3-.974,2.332,1.323,4.649,2.675,6.972,4.014q16.953,9.775,33.9,19.565A8.866,8.866,0,0,1,1924.172,1273.067Z" transform="translate(-246.842 -777.378)" fill="url(#linear-gradient)"/>
    <path id="Path_42" data-name="Path 42" d="M2164.745,816.76a2.99,2.99,0,0,1-.946-.741c-1.095-1.793-2.131-3.622-3.149-5.46a1.274,1.274,0,0,1,.535-1.864,1.222,1.222,0,0,1,1.795.453c1.107,1.828,2.188,3.675,3.2,5.557C2166.708,815.69,2166.07,816.727,2164.745,816.76Z" transform="translate(-466.517 -433.616)" fill="url(#linear-gradient)"/>
    <path id="Path_43" data-name="Path 43" d="M2125.705,842.673a3.681,3.681,0,0,1-.983-.82c-.711-1.091-1.328-2.245-1.96-3.386a1.383,1.383,0,1,1,2.407-1.35c.663,1.123,1.331,2.246,1.936,3.4C2127.668,841.591,2127.114,842.631,2125.705,842.673Z" transform="translate(-436.852 -455.371)" fill="url(#linear-gradient)"/>
    <path id="Path_44" data-name="Path 44" d="M2086.179,863.927c.172.088.6.169.773.424a9.332,9.332,0,0,1,1.36,2.422,1.647,1.647,0,0,1-.686,1.451,1.722,1.722,0,0,1-1.594-.307,7.207,7.207,0,0,1-1.307-2.207C2084.36,864.839,2085.071,863.925,2086.179,863.927Z" transform="translate(-407.222 -476.986)" fill="url(#linear-gradient)"/>
    <path id="Path_45" data-name="Path 45" d="M1834.447,564.416c.55.246.927.376,1.267.572q17.42,10.061,34.833,20.134a5.335,5.335,0,0,1,.557.339,1.314,1.314,0,0,1,.43,1.822,1.283,1.283,0,0,1-1.777.562,5.964,5.964,0,0,1-.67-.36q-17.321-10.015-34.64-20.035c-.281-.163-.675-.3-.786-.55a2.338,2.338,0,0,1-.277-1.472C1833.521,565.011,1834.089,564.735,1834.447,564.416Z" transform="translate(-210.679 -242.726)" fill="url(#linear-gradient)"/>
    <path id="Path_46" data-name="Path 46" d="M2753.293,1376.726a6.2,6.2,0,0,1-1.194,1.138c-4.846,2.844-9.716,5.647-14.58,8.459q-9.979,5.77-19.962,11.534c-.343.2-.74.535-1.062.485a2.283,2.283,0,0,1-1.5-.7c-.215-.345.052-1.047.226-1.55.076-.218.445-.344.7-.489q17.367-10.048,34.737-20.09a4.254,4.254,0,0,1,.872-.44C2752.406,1374.816,2753.249,1375.441,2753.293,1376.726Z" transform="translate(-900.198 -876.732)" fill="url(#linear-gradient)"/>
    <path id="Path_47" data-name="Path 47" d="M2752.718,1095.851c-.006,1.3-.8,1.927-1.716,1.691a4.1,4.1,0,0,1-.973-.466q-17.275-9.967-34.546-19.941a4.6,4.6,0,0,1-.737-.457,1.272,1.272,0,0,1-.335-1.747,1.3,1.3,0,0,1,1.685-.593,6.2,6.2,0,0,1,.954.517q17.183,9.909,34.355,19.834A7.548,7.548,0,0,1,2752.718,1095.851Z" transform="translate(-899.634 -641.474)" fill="url(#linear-gradient)"/>
    <path id="Path_48" data-name="Path 48" d="M2538.521,1199.331q0,9.851,0,19.7a7.384,7.384,0,0,1-.034,1.086,1.348,1.348,0,0,1-2.67-.029,7.329,7.329,0,0,1-.032-.978q0-19.81,0-39.62c0-1.6.409-2.265,1.384-2.254s1.353.645,1.354,2.283Q2538.521,1189.426,2538.521,1199.331Z" transform="translate(-760.088 -722.04)" fill="url(#linear-gradient)"/>
  </g>
</svg>
