<svg xmlns="http://www.w3.org/2000/svg" xmlns:xlink="http://www.w3.org/1999/xlink" width="252.154" height="49.596" viewBox="0 0 252.154 49.596">
  <defs>
    <linearGradient id="linear-gradient" x1="0.298" y1="0.338" x2="0.83" y2="0.691" gradientUnits="objectBoundingBox">
      <stop offset="0" stop-color="#84bd00"/>
      <stop offset="1" stop-color="#00843d"/>
    </linearGradient>
    <linearGradient id="linear-gradient-2" x1="0.064" y1="0.255" x2="0.93" y2="0.755" xlink:href="#linear-gradient"/>
    <linearGradient id="linear-gradient-3" x1="0.306" y1="0.409" x2="0.773" y2="0.652" xlink:href="#linear-gradient"/>
  </defs>
  <g id="Group_2" data-name="Group 2" transform="translate(-164.308 -280.834)">
    <path id="Path_1" data-name="Path 1" d="M213.456,320.829a40.913,40.913,0,0,1-13.733,11.336,16.109,16.109,0,0,1-7.994-1.215,36.629,36.629,0,0,0,22.048-18.143A16.23,16.23,0,0,1,213.456,320.829Z" transform="translate(-9.582 -11.173)" fill="url(#linear-gradient)"/>
    <path id="Path_2" data-name="Path 2" d="M212.677,305.018a24.164,24.164,0,1,1-16.805-23.036c1.495,7.621-3.551,25.732-22.952,26.978a16.1,16.1,0,0,1-.483-4.071,20.09,20.09,0,0,0,19.508-19.674c0-.015,0-.031,0-.046a20.137,20.137,0,1,0,14.591,10.881,36.3,36.3,0,0,0,1.317-5.528A24.106,24.106,0,0,1,212.677,305.018Z" fill="url(#linear-gradient-2)"/>
    <path id="Path_3" data-name="Path 3" d="M209.644,288.188a32.324,32.324,0,0,1-26.708,30.083,15.084,15.084,0,0,1-2.931-3.732,28.348,28.348,0,0,0,25.583-29.147A24.226,24.226,0,0,1,209.644,288.188Z" transform="translate(-5.485 -1.592)" fill="url(#linear-gradient-3)"/>
    <path id="Path_4" data-name="Path 4" d="M256.759,303.467V286.375h10.976v2.639h-7.868v4.218h7v2.59h-7v5.007h8.46v2.639Z" transform="translate(-32.306 -1.936)" fill="#00843d"/>
    <path id="Path_5" data-name="Path 5" d="M278.747,293.093a20.049,20.049,0,0,1,2.245-.468,19.3,19.3,0,0,1,3.058-.222,7.037,7.037,0,0,1,2.639.431,4.122,4.122,0,0,1,1.69,1.209,4.618,4.618,0,0,1,.888,1.874,10.484,10.484,0,0,1,.259,2.4v7.251h-2.984v-6.782a9.8,9.8,0,0,0-.136-1.764,3.14,3.14,0,0,0-.444-1.184,1.779,1.779,0,0,0-.839-.666,3.529,3.529,0,0,0-1.295-.21,10.045,10.045,0,0,0-1.184.074q-.618.074-.913.124v10.408h-2.985Z" transform="translate(-39.989 -4.043)" fill="#00843d"/>
    <path id="Path_6" data-name="Path 6" d="M302.87,305.719q-1.237-2.539-2.538-5.833a73.93,73.93,0,0,1-2.365-7.066h3.183q.272,1.085.631,2.33t.768,2.491q.408,1.246.842,2.417t.805,2.108q.371-.937.792-2.108t.829-2.417q.408-1.245.78-2.491t.644-2.33h3.084a73.759,73.759,0,0,1-2.365,7.066q-1.3,3.292-2.538,5.833Z" transform="translate(-46.706 -4.188)" fill="#00843d"/>
    <path id="Path_7" data-name="Path 7" d="M323.48,286.026a1.712,1.712,0,0,1-.543,1.332,1.84,1.84,0,0,1-1.283.493,1.869,1.869,0,0,1-1.307-.493,1.71,1.71,0,0,1-.543-1.332,1.742,1.742,0,0,1,.543-1.356,1.875,1.875,0,0,1,1.307-.493,1.846,1.846,0,0,1,1.283.493A1.744,1.744,0,0,1,323.48,286.026Zm-.321,16.673h-2.984V289.8h2.984Z" transform="translate(-54.337 -1.168)" fill="#00843d"/>
    <path id="Path_8" data-name="Path 8" d="M338.149,295.362a9.591,9.591,0,0,0-1.023-.259,7.534,7.534,0,0,0-1.517-.136,6,6,0,0,0-1.048.1,6.26,6.26,0,0,0-.777.172v10.334H330.8V293.29a16.381,16.381,0,0,1,2.158-.6,13.482,13.482,0,0,1,2.874-.284q.3,0,.69.036t.79.1q.394.061.764.148t.592.16Z" transform="translate(-58.178 -4.043)" fill="#00843d"/>
    <path id="Path_9" data-name="Path 9" d="M357.359,299.085a8.329,8.329,0,0,1-.444,2.787,6.177,6.177,0,0,1-1.258,2.146,5.649,5.649,0,0,1-1.96,1.381,6.342,6.342,0,0,1-2.528.493,6.249,6.249,0,0,1-2.516-.493,5.674,5.674,0,0,1-1.948-1.381,6.314,6.314,0,0,1-1.271-2.146,8.119,8.119,0,0,1-.456-2.787,8.011,8.011,0,0,1,.456-2.775,6.238,6.238,0,0,1,1.282-2.134,5.67,5.67,0,0,1,1.961-1.369,6.31,6.31,0,0,1,2.491-.481,6.405,6.405,0,0,1,2.5.481,5.516,5.516,0,0,1,1.961,1.369,6.348,6.348,0,0,1,1.27,2.134A8.027,8.027,0,0,1,357.359,299.085Zm-3.058,0a5.031,5.031,0,0,0-.826-3.046,2.93,2.93,0,0,0-4.612,0,5.031,5.031,0,0,0-.826,3.046,5.131,5.131,0,0,0,.826,3.082,2.911,2.911,0,0,0,4.612,0A5.131,5.131,0,0,0,354.3,299.085Z" transform="translate(-63.133 -4.016)" fill="#00843d"/>
    <path id="Path_10" data-name="Path 10" d="M368.748,293.093a20.064,20.064,0,0,1,2.244-.468,19.314,19.314,0,0,1,3.059-.222,7.037,7.037,0,0,1,2.639.431,4.122,4.122,0,0,1,1.69,1.209,4.626,4.626,0,0,1,.888,1.874,10.483,10.483,0,0,1,.259,2.4v7.251h-2.985v-6.782a9.8,9.8,0,0,0-.135-1.764,3.13,3.13,0,0,0-.444-1.184,1.777,1.777,0,0,0-.838-.666,3.533,3.533,0,0,0-1.3-.21,10.043,10.043,0,0,0-1.183.074q-.618.074-.913.124v10.408h-2.985Z" transform="translate(-71.439 -4.043)" fill="#00843d"/>
    <path id="Path_11" data-name="Path 11" d="M398.276,298.791a6.284,6.284,0,0,0-.506-2.923,1.971,1.971,0,0,0-1.887-.9,8.923,8.923,0,0,0-1.085.074q-.591.074-.887.124v10.408h-2.985v-12.48a19.925,19.925,0,0,1,2.257-.468,18.692,18.692,0,0,1,2.948-.222,5.874,5.874,0,0,1,2.182.345,4.234,4.234,0,0,1,1.419.913,5.723,5.723,0,0,1,.69-.419,7.13,7.13,0,0,1,.937-.407,8.514,8.514,0,0,1,1.1-.308,5.625,5.625,0,0,1,1.172-.123,6.155,6.155,0,0,1,2.479.431,3.638,3.638,0,0,1,1.529,1.209,4.7,4.7,0,0,1,.765,1.874,12.889,12.889,0,0,1,.209,2.4v7.251h-2.984v-6.782a6.426,6.426,0,0,0-.493-2.923,1.967,1.967,0,0,0-1.9-.9,3.938,3.938,0,0,0-1.356.234,4.384,4.384,0,0,0-.962.457,6.649,6.649,0,0,1,.271,1.307,14.081,14.081,0,0,1,.074,1.48v7.128h-2.984Z" transform="translate(-79.189 -4.043)" fill="#00843d"/>
    <path id="Path_12" data-name="Path 12" d="M422.62,299.159a8.094,8.094,0,0,1,.505-2.984,6.26,6.26,0,0,1,1.344-2.134,5.571,5.571,0,0,1,1.924-1.282,5.975,5.975,0,0,1,2.22-.431,5.314,5.314,0,0,1,4.156,1.652,7.15,7.15,0,0,1,1.492,4.933c0,.165,0,.349-.012.555s-.021.391-.037.555H425.7a3.4,3.4,0,0,0,1.1,2.405,4.169,4.169,0,0,0,2.823.851,9.253,9.253,0,0,0,1.986-.2,8.129,8.129,0,0,0,1.418-.42l.395,2.442a4.745,4.745,0,0,1-.679.259,9.469,9.469,0,0,1-.986.247q-.555.111-1.2.185a11.532,11.532,0,0,1-1.307.074,7.916,7.916,0,0,1-2.96-.505,5.5,5.5,0,0,1-2.071-1.406,5.755,5.755,0,0,1-1.209-2.121A8.667,8.667,0,0,1,422.62,299.159Zm8.657-1.332a3.942,3.942,0,0,0-.173-1.172,2.831,2.831,0,0,0-.505-.962,2.389,2.389,0,0,0-.814-.641,2.6,2.6,0,0,0-1.147-.234,2.666,2.666,0,0,0-1.209.259,2.76,2.76,0,0,0-.876.678,3.109,3.109,0,0,0-.554.962,5.151,5.151,0,0,0-.271,1.11Z" transform="translate(-90.264 -4.016)" fill="#00843d"/>
    <path id="Path_13" data-name="Path 13" d="M445.367,293.093a20,20,0,0,1,2.244-.468,19.306,19.306,0,0,1,3.058-.222,7.043,7.043,0,0,1,2.639.431A4.12,4.12,0,0,1,455,294.043a4.61,4.61,0,0,1,.888,1.874,10.449,10.449,0,0,1,.259,2.4v7.251h-2.984v-6.782a9.8,9.8,0,0,0-.136-1.764,3.13,3.13,0,0,0-.444-1.184,1.776,1.776,0,0,0-.839-.666,3.529,3.529,0,0,0-1.295-.21,10.055,10.055,0,0,0-1.184.074q-.617.074-.913.124v10.408h-2.984Z" transform="translate(-98.213 -4.043)" fill="#00843d"/>
    <path id="Path_14" data-name="Path 14" d="M467.317,287.323l2.984-.494v3.9h4.588v2.491H470.3v5.253a3.815,3.815,0,0,0,.494,2.22,1.953,1.953,0,0,0,1.677.666,5.456,5.456,0,0,0,1.442-.173,9.515,9.515,0,0,0,1-.321l.493,2.368a11.255,11.255,0,0,1-1.356.456,7.383,7.383,0,0,1-1.973.234,6.247,6.247,0,0,1-2.306-.37,3.4,3.4,0,0,1-1.467-1.073,4.245,4.245,0,0,1-.764-1.7,10.554,10.554,0,0,1-.223-2.282Z" transform="translate(-105.883 -2.095)" fill="#00843d"/>
    <path id="Path_15" data-name="Path 15" d="M487.193,292.327a7.305,7.305,0,0,1,2.491.37,3.984,3.984,0,0,1,1.615,1.036,3.878,3.878,0,0,1,.863,1.615,7.918,7.918,0,0,1,.259,2.084v7.819q-.69.147-2.084.357a21.372,21.372,0,0,1-3.145.209,9.413,9.413,0,0,1-2.121-.222,4.449,4.449,0,0,1-1.641-.715,3.374,3.374,0,0,1-1.06-1.283,4.444,4.444,0,0,1-.383-1.948,3.759,3.759,0,0,1,.432-1.875,3.545,3.545,0,0,1,1.172-1.245,5.068,5.068,0,0,1,1.714-.691,9.685,9.685,0,0,1,2.035-.209,9.372,9.372,0,0,1,1.036.061,9.745,9.745,0,0,1,1.159.21v-.493a3.874,3.874,0,0,0-.123-.987,2.059,2.059,0,0,0-.431-.826,2.038,2.038,0,0,0-.814-.555,3.531,3.531,0,0,0-1.271-.2,11.249,11.249,0,0,0-1.9.148,8.358,8.358,0,0,0-1.406.345l-.37-2.417a11.854,11.854,0,0,1,1.652-.395A12.972,12.972,0,0,1,487.193,292.327Zm.247,11.123a11.078,11.078,0,0,0,2.1-.148V300a5.793,5.793,0,0,0-.715-.148,6.647,6.647,0,0,0-1.036-.074,6.873,6.873,0,0,0-1,.074,3.122,3.122,0,0,0-.913.271,1.646,1.646,0,0,0-.653.555,1.549,1.549,0,0,0-.247.9,1.579,1.579,0,0,0,.666,1.468A3.433,3.433,0,0,0,487.439,303.45Z" transform="translate(-111.009 -4.016)" fill="#00843d"/>
    <path id="Path_16" data-name="Path 16" d="M508.1,302.614a8.109,8.109,0,0,1-2.207-.3,3.389,3.389,0,0,1-1.393-.777,2.753,2.753,0,0,1-.728-1.258,6.4,6.4,0,0,1-.209-1.714V283.721l2.984-.493V298a4.075,4.075,0,0,0,.087.913,1.454,1.454,0,0,0,.308.629,1.379,1.379,0,0,0,.6.394,4.684,4.684,0,0,0,.974.209Z" transform="translate(-118.547 -0.837)" fill="#00843d"/>
    <path id="Path_17" data-name="Path 17" d="M267.562,338.072v2.688h-10.8V323.668h3.108v14.4Z" transform="translate(-32.306 -14.968)" fill="#00843d"/>
    <path id="Path_18" data-name="Path 18" d="M279.92,323.32a1.713,1.713,0,0,1-.543,1.332,1.841,1.841,0,0,1-1.282.493,1.874,1.874,0,0,1-1.308-.493,1.711,1.711,0,0,1-.543-1.332,1.744,1.744,0,0,1,.543-1.357,1.876,1.876,0,0,1,1.308-.492,1.844,1.844,0,0,1,1.282.492A1.747,1.747,0,0,1,279.92,323.32Zm-.321,16.673h-2.984v-12.9H279.6Z" transform="translate(-39.115 -14.2)" fill="#00843d"/>
    <path id="Path_19" data-name="Path 19" d="M289.714,343.012q-1.237-2.539-2.538-5.833a73.9,73.9,0,0,1-2.365-7.066h3.183q.272,1.085.631,2.331t.768,2.491q.408,1.246.842,2.418t.805,2.108q.371-.937.792-2.108t.829-2.418q.408-1.245.78-2.491t.644-2.331h3.084a73.708,73.708,0,0,1-2.365,7.066q-1.3,3.293-2.538,5.833Z" transform="translate(-42.108 -17.22)" fill="#00843d"/>
    <path id="Path_20" data-name="Path 20" d="M310.324,323.32a1.71,1.71,0,0,1-.543,1.332,1.842,1.842,0,0,1-1.282.493,1.871,1.871,0,0,1-1.307-.493,1.711,1.711,0,0,1-.543-1.332,1.744,1.744,0,0,1,.543-1.357,1.874,1.874,0,0,1,1.307-.492,1.844,1.844,0,0,1,1.282.492A1.744,1.744,0,0,1,310.324,323.32ZM310,339.992H307.02v-12.9H310Z" transform="translate(-49.74 -14.2)" fill="#00843d"/>
    <path id="Path_21" data-name="Path 21" d="M317.643,330.387a19.9,19.9,0,0,1,2.244-.468,19.309,19.309,0,0,1,3.058-.222,7.041,7.041,0,0,1,2.639.431,4.127,4.127,0,0,1,1.69,1.208,4.633,4.633,0,0,1,.888,1.875,10.48,10.48,0,0,1,.258,2.4v7.251h-2.984v-6.782a9.785,9.785,0,0,0-.136-1.764,3.122,3.122,0,0,0-.444-1.184,1.776,1.776,0,0,0-.839-.665,3.527,3.527,0,0,0-1.295-.21,10.057,10.057,0,0,0-1.184.074c-.411.049-.715.09-.912.123v10.408h-2.985Z" transform="translate(-53.581 -17.075)" fill="#00843d"/>
    <path id="Path_22" data-name="Path 22" d="M350.092,341.56a5.837,5.837,0,0,1-1.567,4.514,6.93,6.93,0,0,1-4.8,1.431,13.3,13.3,0,0,1-2.306-.2,12.885,12.885,0,0,1-2.035-.518l.543-2.54a9.35,9.35,0,0,0,1.739.517,10.581,10.581,0,0,0,2.108.2,3.621,3.621,0,0,0,2.565-.74,2.921,2.921,0,0,0,.765-2.195v-.494a7.7,7.7,0,0,1-1.172.445,5.722,5.722,0,0,1-1.665.222,6.225,6.225,0,0,1-2.257-.395,4.722,4.722,0,0,1-1.751-1.159,5.293,5.293,0,0,1-1.135-1.911,7.915,7.915,0,0,1-.407-2.651,7.5,7.5,0,0,1,.432-2.59,5.532,5.532,0,0,1,1.258-2.023,5.756,5.756,0,0,1,2.01-1.307,7.259,7.259,0,0,1,2.689-.468,16.466,16.466,0,0,1,2.762.222q1.307.222,2.22.468Zm-8.312-5.475a3.942,3.942,0,0,0,.826,2.774,2.8,2.8,0,0,0,2.134.876,4.448,4.448,0,0,0,1.344-.2,3.85,3.85,0,0,0,1.024-.468v-6.685q-.321-.073-.79-.135a9.254,9.254,0,0,0-1.184-.062,3.011,3.011,0,0,0-2.491,1.072A4.373,4.373,0,0,0,341.78,336.085Z" transform="translate(-60.947 -17.075)" fill="#00843d"/>
    <path id="Path_23" data-name="Path 23" d="M371.1,323.668H374.2V340.76H371.1Z" transform="translate(-72.26 -14.968)" fill="#00843d"/>
    <path id="Path_24" data-name="Path 24" d="M381.94,330.387a19.9,19.9,0,0,1,2.244-.468,19.309,19.309,0,0,1,3.058-.222,7.041,7.041,0,0,1,2.639.431,4.127,4.127,0,0,1,1.689,1.208,4.633,4.633,0,0,1,.888,1.875,10.482,10.482,0,0,1,.258,2.4v7.251h-2.984v-6.782a9.784,9.784,0,0,0-.136-1.764,3.121,3.121,0,0,0-.444-1.184,1.778,1.778,0,0,0-.838-.665,3.533,3.533,0,0,0-1.3-.21,10.057,10.057,0,0,0-1.184.074c-.411.049-.715.09-.912.123v10.408H381.94Z" transform="translate(-76.049 -17.075)" fill="#00843d"/>
    <path id="Path_25" data-name="Path 25" d="M414.635,339.266a17.743,17.743,0,0,1-2.232.494,17.36,17.36,0,0,1-2.824.222,7.514,7.514,0,0,1-2.738-.469,5.686,5.686,0,0,1-2.06-1.344,5.908,5.908,0,0,1-1.307-2.121,8.084,8.084,0,0,1-.456-2.8,9.434,9.434,0,0,1,.382-2.775,6.071,6.071,0,0,1,1.122-2.133,5.006,5.006,0,0,1,1.8-1.369,5.867,5.867,0,0,1,2.442-.48,5.573,5.573,0,0,1,1.652.222,7.346,7.346,0,0,1,1.233.493v-6.191l2.985-.493Zm-8.558-6.091a4.685,4.685,0,0,0,.937,3.1,3.193,3.193,0,0,0,2.59,1.122,10.326,10.326,0,0,0,1.221-.062,8.332,8.332,0,0,0,.826-.136v-7.4a4.637,4.637,0,0,0-1.048-.505,4.1,4.1,0,0,0-1.393-.234,2.668,2.668,0,0,0-2.38,1.111A5.289,5.289,0,0,0,406.077,333.175Z" transform="translate(-83.415 -13.868)" fill="#00843d"/>
    <path id="Path_26" data-name="Path 26" d="M437.214,342.617q-.864.222-2.244.457a18.274,18.274,0,0,1-3.034.234,6.688,6.688,0,0,1-2.6-.444,4.163,4.163,0,0,1-1.677-1.233,4.829,4.829,0,0,1-.9-1.887,9.976,9.976,0,0,1-.271-2.405v-7.226h2.984v6.758a5.449,5.449,0,0,0,.6,2.959,2.364,2.364,0,0,0,2.109.888q.543,0,1.147-.049a6.087,6.087,0,0,0,.9-.124V330.113h2.985Z" transform="translate(-91.615 -17.22)" fill="#00843d"/>
    <path id="Path_27" data-name="Path 27" d="M451.516,340.695a3.931,3.931,0,0,0,1.727-.284,1.008,1.008,0,0,0,.543-.975,1.265,1.265,0,0,0-.579-1.06,8.547,8.547,0,0,0-1.912-.912,15.246,15.246,0,0,1-1.492-.629,5.1,5.1,0,0,1-1.171-.777,3.182,3.182,0,0,1-.777-1.073,3.737,3.737,0,0,1-.284-1.541,3.363,3.363,0,0,1,1.307-2.8,5.614,5.614,0,0,1,3.551-1.024,10.954,10.954,0,0,1,2.17.21,10.5,10.5,0,0,1,1.554.407l-.543,2.416a7.375,7.375,0,0,0-1.258-.407,7.62,7.62,0,0,0-1.775-.185,3.089,3.089,0,0,0-1.48.308,1.011,1.011,0,0,0-.567.949,1.37,1.37,0,0,0,.111.568,1.214,1.214,0,0,0,.382.455,3.843,3.843,0,0,0,.716.42,11.035,11.035,0,0,0,1.085.432,16.485,16.485,0,0,1,1.8.777,4.873,4.873,0,0,1,1.221.863,2.954,2.954,0,0,1,.7,1.1,4.393,4.393,0,0,1,.222,1.48,3.187,3.187,0,0,1-1.369,2.8,6.811,6.811,0,0,1-3.909.95,10.687,10.687,0,0,1-2.738-.284,14.19,14.19,0,0,1-1.455-.456l.518-2.491a13.384,13.384,0,0,0,1.591.518A8.2,8.2,0,0,0,451.516,340.695Z" transform="translate(-98.888 -17.048)" fill="#00843d"/>
    <path id="Path_28" data-name="Path 28" d="M465.913,324.616l2.984-.492v3.9h4.587v2.491H468.9v5.254a3.816,3.816,0,0,0,.493,2.22,1.953,1.953,0,0,0,1.677.666,5.466,5.466,0,0,0,1.443-.173,9.576,9.576,0,0,0,1-.321l.493,2.367a11.23,11.23,0,0,1-1.357.457,7.407,7.407,0,0,1-1.973.234,6.242,6.242,0,0,1-2.306-.37,3.4,3.4,0,0,1-1.468-1.072,4.246,4.246,0,0,1-.764-1.7,10.559,10.559,0,0,1-.222-2.282Z" transform="translate(-105.392 -15.127)" fill="#00843d"/>
    <path id="Path_29" data-name="Path 29" d="M489.337,332.656a9.661,9.661,0,0,0-1.024-.259,7.53,7.53,0,0,0-1.516-.136,6.012,6.012,0,0,0-1.049.1,6.287,6.287,0,0,0-.777.172v10.334h-2.984V330.584a16.283,16.283,0,0,1,2.158-.6,13.482,13.482,0,0,1,2.874-.284c.2,0,.427.012.69.036s.526.059.789.1.518.09.765.148.444.111.591.16Z" transform="translate(-111.009 -17.075)" fill="#00843d"/>
    <path id="Path_30" data-name="Path 30" d="M500.409,323.32a1.711,1.711,0,0,1-.543,1.332,1.842,1.842,0,0,1-1.282.493,1.871,1.871,0,0,1-1.307-.493,1.711,1.711,0,0,1-.543-1.332,1.744,1.744,0,0,1,.543-1.357,1.874,1.874,0,0,1,1.307-.492,1.844,1.844,0,0,1,1.282.492A1.744,1.744,0,0,1,500.409,323.32Zm-.32,16.673h-2.984v-12.9h2.984Z" transform="translate(-116.163 -14.2)" fill="#00843d"/>
    <path id="Path_31" data-name="Path 31" d="M506.629,336.452a8.093,8.093,0,0,1,.505-2.983,6.264,6.264,0,0,1,1.344-2.134,5.548,5.548,0,0,1,1.924-1.282,5.964,5.964,0,0,1,2.22-.433,5.316,5.316,0,0,1,4.156,1.652,7.153,7.153,0,0,1,1.492,4.933c0,.165,0,.349-.012.555s-.021.391-.037.554h-8.509a3.4,3.4,0,0,0,1.1,2.405,4.166,4.166,0,0,0,2.824.852,9.257,9.257,0,0,0,1.986-.2,8.242,8.242,0,0,0,1.418-.419l.395,2.442a4.847,4.847,0,0,1-.678.259,9.714,9.714,0,0,1-.987.247q-.555.111-1.2.185a11.517,11.517,0,0,1-1.307.074,7.916,7.916,0,0,1-2.96-.505,5.5,5.5,0,0,1-2.071-1.407,5.753,5.753,0,0,1-1.209-2.12A8.676,8.676,0,0,1,506.629,336.452Zm8.657-1.331a3.917,3.917,0,0,0-.173-1.172,2.819,2.819,0,0,0-.505-.962,2.381,2.381,0,0,0-.814-.641,2.6,2.6,0,0,0-1.147-.235,2.666,2.666,0,0,0-1.209.26,2.756,2.756,0,0,0-.875.678,3.082,3.082,0,0,0-.555.962,5.178,5.178,0,0,0-.271,1.11Z" transform="translate(-119.62 -17.048)" fill="#00843d"/>
    <path id="Path_32" data-name="Path 32" d="M532.077,340.695a3.931,3.931,0,0,0,1.727-.284,1.008,1.008,0,0,0,.543-.975,1.265,1.265,0,0,0-.579-1.06,8.561,8.561,0,0,0-1.912-.912,15.246,15.246,0,0,1-1.492-.629,5.1,5.1,0,0,1-1.171-.777,3.194,3.194,0,0,1-.777-1.073,3.748,3.748,0,0,1-.283-1.541,3.363,3.363,0,0,1,1.307-2.8,5.613,5.613,0,0,1,3.551-1.024,10.959,10.959,0,0,1,2.17.21,10.5,10.5,0,0,1,1.554.407l-.543,2.416a7.394,7.394,0,0,0-1.258-.407,7.62,7.62,0,0,0-1.775-.185,3.09,3.09,0,0,0-1.48.308,1.011,1.011,0,0,0-.567.949,1.371,1.371,0,0,0,.111.568,1.214,1.214,0,0,0,.382.455,3.858,3.858,0,0,0,.715.42,11.171,11.171,0,0,0,1.085.432,16.444,16.444,0,0,1,1.8.777,4.87,4.87,0,0,1,1.221.863,2.954,2.954,0,0,1,.7,1.1,4.394,4.394,0,0,1,.222,1.48,3.187,3.187,0,0,1-1.37,2.8,6.813,6.813,0,0,1-3.909.95,10.7,10.7,0,0,1-2.738-.284,14.217,14.217,0,0,1-1.455-.456l.518-2.491a13.345,13.345,0,0,0,1.591.518A8.2,8.2,0,0,0,532.077,340.695Z" transform="translate(-127.039 -17.048)" fill="#00843d"/>
    <g id="Group_1" data-name="Group 1" transform="translate(412.658 322.335)">
      <path id="Path_33" data-name="Path 33" d="M549.859,346.477a1.9,1.9,0,1,1-1.9-1.851A1.86,1.86,0,0,1,549.859,346.477Zm-3.33,0a1.434,1.434,0,0,0,1.444,1.479,1.417,1.417,0,0,0,1.411-1.467,1.429,1.429,0,1,0-2.855-.012Zm1.14.971h-.429V345.6a3.748,3.748,0,0,1,.711-.057,1.157,1.157,0,0,1,.643.135.514.514,0,0,1,.18.407.474.474,0,0,1-.384.429v.022a.548.548,0,0,1,.339.452,1.429,1.429,0,0,0,.135.463H548.4a1.582,1.582,0,0,1-.147-.451c-.034-.2-.146-.293-.384-.293h-.2Zm.012-1.049h.2c.237,0,.429-.079.429-.271,0-.169-.124-.282-.395-.282a1.029,1.029,0,0,0-.237.023Z" transform="translate(-546.055 -344.626)" fill="#00843d"/>
    </g>
  </g>
</svg>
