<svg xmlns="http://www.w3.org/2000/svg" xmlns:xlink="http://www.w3.org/1999/xlink" width="140.023" height="55" viewBox="0 0 140.023 55">
  <defs>
    <linearGradient id="linear-gradient" x1="0.298" y1="0.338" x2="0.83" y2="0.691" gradientUnits="objectBoundingBox">
      <stop offset="0" stop-color="#84bd00"/>
      <stop offset="1" stop-color="#00843d"/>
    </linearGradient>
    <linearGradient id="linear-gradient-2" x1="0.064" y1="0.255" x2="0.93" y2="0.755" xlink:href="#linear-gradient"/>
    <linearGradient id="linear-gradient-3" x1="0.306" y1="0.409" x2="0.773" y2="0.652" xlink:href="#linear-gradient"/>
  </defs>
  <g id="Group_1587" data-name="Group 1587" transform="translate(-164.308 -450.698)">
    <path id="Path_230" data-name="Path 230" d="M216.435,491.794a46.512,46.512,0,0,1-15.616,12.89,18.317,18.317,0,0,1-9.09-1.381A41.65,41.65,0,0,0,216.8,482.671,18.458,18.458,0,0,1,216.435,491.794Z" transform="translate(-7.136 -8.321)" fill="#fff"/>
    <path id="Path_231" data-name="Path 231" d="M219.309,478.2A27.479,27.479,0,1,1,200.2,452c1.7,8.666-4.038,29.259-26.1,30.676a18.311,18.311,0,0,1-.55-4.629,22.845,22.845,0,0,0,22.182-22.371c0-.017,0-.036,0-.052A22.9,22.9,0,1,0,212.325,468a41.312,41.312,0,0,0,1.5-6.286A27.411,27.411,0,0,1,219.309,478.2Z" fill="#fff"/>
    <path id="Path_232" data-name="Path 232" d="M213.708,458.436a36.755,36.755,0,0,1-30.369,34.206,17.134,17.134,0,0,1-3.333-4.243A32.236,32.236,0,0,0,209.1,455.256,27.5,27.5,0,0,1,213.708,458.436Z" transform="translate(-4.085 -1.186)" fill="#fff"/>
    <g id="Group_1586" data-name="Group 1586" transform="translate(230.677 460.054)">
      <g id="Group_1585" data-name="Group 1585">
        <path id="Path_233" data-name="Path 233" d="M254.026,499.633V463.346h23.3v5.6h-16.7V477.9H275.5v5.5H260.624v10.63h17.961v5.6Z" transform="translate(-254.026 -463.345)" fill="#008536"/>
        <path id="Path_234" data-name="Path 234" d="M317.636,493.926v5.707H294.7V463.345h6.6v30.581Z" transform="translate(-264.611 -463.345)" fill="#008536"/>
        <path id="Path_235" data-name="Path 235" d="M333.368,463.345h6.6v36.288h-6.6Z" transform="translate(-274.674 -463.345)" fill="#008536"/>
      </g>
      <path id="Path_236" data-name="Path 236" d="M352.068,508.779a2.163,2.163,0,1,1-2.156-2.1A2.115,2.115,0,0,1,352.068,508.779Zm-3.786,0a1.631,1.631,0,0,0,1.642,1.681,1.611,1.611,0,0,0,1.6-1.668,1.625,1.625,0,1,0-3.247-.013Zm1.3,1.1h-.487v-2.105a4.259,4.259,0,0,1,.809-.064,1.3,1.3,0,0,1,.731.155.58.58,0,0,1,.206.462.538.538,0,0,1-.436.487v.026a.621.621,0,0,1,.385.513,1.631,1.631,0,0,0,.154.527h-.526a1.813,1.813,0,0,1-.167-.514c-.038-.231-.167-.334-.436-.334h-.231Zm.013-1.194h.232c.269,0,.488-.09.488-.308,0-.192-.141-.321-.449-.321a1.134,1.134,0,0,0-.27.027Z" transform="translate(-278.415 -474.621)" fill="#008536"/>
    </g>
    <g id="Group_1595" data-name="Group 1595" transform="translate(-90.022 -42)">
      <path id="Path_240" data-name="Path 240" d="M216.435,321.929a46.522,46.522,0,0,1-15.615,12.89,18.317,18.317,0,0,1-9.09-1.382,41.651,41.651,0,0,0,25.071-20.63A18.455,18.455,0,0,1,216.435,321.929Z" transform="translate(82.886 203.543)" fill="url(#linear-gradient)"/>
      <path id="Path_241" data-name="Path 241" d="M219.309,308.334A27.476,27.476,0,1,1,200.2,282.139c1.7,8.666-4.038,29.259-26.1,30.676a18.307,18.307,0,0,1-.55-4.629,22.844,22.844,0,0,0,22.182-22.371c0-.017,0-.035,0-.052a22.9,22.9,0,1,0,16.591,12.373,41.27,41.27,0,0,0,1.5-6.286A27.411,27.411,0,0,1,219.309,308.334Z" transform="translate(90.022 211.864)" fill="url(#linear-gradient-2)"/>
      <path id="Path_242" data-name="Path 242" d="M213.708,288.571a36.755,36.755,0,0,1-30.369,34.207,17.153,17.153,0,0,1-3.333-4.244A32.235,32.235,0,0,0,209.1,285.391,27.546,27.546,0,0,1,213.708,288.571Z" transform="translate(85.937 210.678)" fill="url(#linear-gradient-3)"/>
    </g>
  </g>
</svg>
